<svg width="25" height="25" viewBox="0 0 25 25" fill="none" xmlns="http://www.w3.org/2000/svg">
<path fill-rule="evenodd" clip-rule="evenodd" d="M2.1097 23.3887C1.9707 23.3883 1.83313 23.3605 1.70486 23.307C1.57659 23.2534 1.46012 23.1751 1.36211 23.0765C1.2641 22.978 1.18646 22.861 1.13363 22.7325C1.0808 22.6039 1.05381 22.4662 1.0542 22.3272V2.45017C1.0542 1.86367 1.5267 1.38867 2.1097 1.38867H21.9992C22.5817 1.38867 23.0542 1.86367 23.0542 2.45017V22.3272C23.0546 22.4662 23.0276 22.6039 22.9748 22.7325C22.9219 22.861 22.8443 22.978 22.7463 23.0765C22.6483 23.1751 22.5318 23.2534 22.4035 23.307C22.2753 23.3605 22.1377 23.3883 21.9987 23.3887H2.1097Z" stroke="white" stroke-width="2" stroke-linecap="round" stroke-linejoin="round"/>
<path fill-rule="evenodd" clip-rule="evenodd" d="M19.3852 9.3322H16.9507C16.6267 9.33233 16.3159 9.46112 16.0868 9.69026C15.8576 9.9194 15.7288 10.2301 15.7287 10.5542V12.9992H19.3852L18.8497 16.6652H15.7287V23.3887H11.7077V16.6652H8.38771V12.9997H11.6647L11.7077 9.5202L11.6957 8.2732C11.6917 7.85196 11.7712 7.4341 11.9296 7.04376C12.088 6.65342 12.3221 6.29834 12.6186 5.99902C12.915 5.69971 13.2678 5.46211 13.6566 5.29994C14.0454 5.13777 14.4625 5.05425 14.8837 5.0542H19.3852V9.3322Z" fill="white"/>
</svg>
