<svg width="29" height="29" viewBox="0 0 29 29" fill="none" xmlns="http://www.w3.org/2000/svg">
<path d="M20.0633 10.3052C21.0298 10.3052 21.8133 9.52167 21.8133 8.55518C21.8133 7.58868 21.0298 6.80518 20.0633 6.80518C19.0968 6.80518 18.3133 7.58868 18.3133 8.55518C18.3133 9.52167 19.0968 10.3052 20.0633 10.3052Z" fill="white"/>
<path d="M18.8966 3.88867C22.1166 3.88867 24.73 6.50201 24.73 9.72201V19.0553C24.73 22.2753 22.1166 24.8887 18.8966 24.8887H9.56331C6.34331 24.8887 3.72998 22.2753 3.72998 19.0553V9.72201C3.72998 6.50201 6.34331 3.88867 9.56331 3.88867H14.23H18.8966Z" stroke="white" stroke-width="2" stroke-linecap="round" stroke-linejoin="round"/>
<path d="M14.23 9.72217C16.8083 9.72217 18.8966 11.8105 18.8966 14.3888C18.8966 16.9672 16.8083 19.0555 14.23 19.0555C11.6516 19.0555 9.56331 16.9672 9.56331 14.3888C9.56331 11.8105 11.6516 9.72217 14.23 9.72217Z" stroke="white" stroke-width="2" stroke-linecap="round" stroke-linejoin="round"/>
</svg>
