<svg width="29" height="29" viewBox="0 0 29 29" fill="none" xmlns="http://www.w3.org/2000/svg">
<path d="M19.5966 7.17867C18.7993 6.26812 18.3599 5.09897 18.36 3.88867H14.755V18.3553C14.7278 19.1384 14.3974 19.8803 13.8337 20.4244C13.2699 20.9686 12.5168 21.2725 11.7333 21.272C10.0766 21.272 8.69998 19.9187 8.69998 18.2387C8.69998 16.232 10.6366 14.727 12.6316 15.3453V11.6587C8.60665 11.122 5.08331 14.2487 5.08331 18.2387C5.08331 22.1237 8.30331 24.8887 11.7216 24.8887C15.385 24.8887 18.36 21.9137 18.36 18.2387V10.9003C19.8218 11.9502 21.5769 12.5134 23.3766 12.5103V8.90534C23.3766 8.90534 21.1833 9.01034 19.5966 7.17867Z" fill="white"/>
</svg>
