<svg width="32" height="32" viewBox="0 0 32 32" fill="none" xmlns="http://www.w3.org/2000/svg">
<path d="M28.6467 16.31C28.6588 14.2312 28.4815 12.1555 28.1171 10.1088C27.9559 9.56856 27.6561 9.07996 27.2476 8.69156C26.839 8.30316 26.3359 8.02848 25.7882 7.89484C22.4403 7.50271 19.0708 7.32582 15.7003 7.36526C12.3303 7.32651 8.96165 7.50734 5.61494 7.90776C5.07164 8.05747 4.57651 8.34567 4.17802 8.74417C3.77952 9.14266 3.49132 9.63778 3.34161 10.1811C2.97736 12.2274 2.80096 14.3027 2.81461 16.3811C2.80169 18.4607 2.97865 20.5351 3.3429 22.5811C3.49523 23.1304 3.78698 23.631 4.18983 24.0343C4.59267 24.4376 5.09294 24.7299 5.64207 24.8828C8.99007 25.2742 12.3587 25.4512 15.73 25.4111C19.0907 25.4566 22.4508 25.2797 25.7882 24.8815C26.331 24.7319 26.8256 24.444 27.2238 24.046C27.6221 23.648 27.9102 23.1535 28.0602 22.6108C28.4568 20.5338 28.6544 18.4232 28.6467 16.31ZM19.0741 17.0618L13.901 19.9952C13.7968 20.0524 13.6795 20.0814 13.5607 20.0795C13.4419 20.0776 13.3256 20.0448 13.2233 19.9844C13.121 19.9239 13.0362 19.8378 12.9772 19.7346C12.9182 19.6314 12.8872 19.5147 12.887 19.3958V13.3095C12.8855 13.1902 12.9158 13.0727 12.9747 12.9691C13.0336 12.8654 13.1191 12.7792 13.2224 12.7195C13.3256 12.6598 13.4429 12.6287 13.5622 12.6293C13.6814 12.6299 13.7984 12.6623 13.901 12.7231L19.2446 15.7947C19.3476 15.8554 19.4325 15.9426 19.4906 16.0472C19.5486 16.1517 19.5777 16.2699 19.5748 16.3894C19.5719 16.509 19.5371 16.6256 19.4741 16.7272C19.411 16.8288 19.322 16.9118 19.2162 16.9675L19.0741 17.0618Z" fill="white"/>
</svg>
